<svg width="180" height="19" viewBox="0 0 180 19" fill="none" xmlns="http://www.w3.org/2000/svg">
<path d="M8.784 4.8L3.816 11.016H8.784V4.8ZM15.048 11.016V13.824H12.072V18H8.784V13.824H0.192V11.232L8.832 0.599999H12.072V11.016H15.048ZM20.2029 0.599999V18H16.7709V0.599999H20.2029ZM37.9974 18H33.5334L26.5734 4.728V18H23.3334V0.599999H27.7974L34.7574 13.872V0.599999H37.9974V18ZM43.9785 9.288C43.9785 13.392 46.2345 15.576 48.9465 15.576C51.6585 15.576 53.9145 13.392 53.9145 9.288C53.9145 5.208 51.6585 3.024 48.9465 3.024C46.2345 3.024 43.9785 5.208 43.9785 9.288ZM57.4665 9.288C57.4665 14.688 54.1305 18.312 48.9465 18.312C43.7625 18.312 40.4265 14.688 40.4265 9.288C40.4265 3.888 43.7625 0.287999 48.9465 0.287999C54.1305 0.287999 57.4665 3.888 57.4665 9.288ZM74.5599 18H70.0959L63.1359 4.728V18H59.8959V0.599999H64.3599L71.3199 13.872V0.599999H74.5599V18ZM77.685 18V0.599999H90.357V3.384H81.117V7.704H89.853V10.488H81.117V15.216H90.357V18H77.685Z" fill="#598400"/>
<path d="M93.2175 5.088V4.152C93.2175 1.464 93.7455 0.599999 96.6975 0.599999H97.8255V2.424H96.7455C95.5935 2.424 95.4015 2.688 95.4015 4.032V5.088H97.8255V6.84H95.4015V18H93.2175V6.84H91.4175V5.088H93.2175ZM108.181 18V16.152C107.437 17.376 106.261 18.312 104.125 18.312C101.149 18.312 99.9969 16.296 99.9969 13.344V5.088H102.181V12.696C102.181 14.688 102.493 16.416 104.893 16.416C106.981 16.416 108.181 14.976 108.181 12.192V5.088H110.365V18H108.181ZM116.014 5.088V7.032C116.758 5.808 118.006 4.872 120.19 4.872C123.31 4.872 124.438 6.888 124.438 9.84V18H122.254V10.488C122.254 8.496 121.918 6.768 119.422 6.768C117.31 6.768 116.014 8.208 116.014 10.992V18H113.83V5.088H116.014ZM133.057 4.872C136.225 4.872 138.145 7.2 138.457 9.408H136.249C135.937 7.872 134.617 6.792 132.913 6.792C130.993 6.792 129.193 8.304 129.193 11.544C129.193 14.808 130.993 16.392 132.913 16.392C134.761 16.392 136.033 15.144 136.345 13.8H138.601C138.145 16.224 135.865 18.312 132.841 18.312C129.121 18.312 126.817 15.504 126.817 11.568C126.817 7.728 129.241 4.872 133.057 4.872ZM141.688 5.088V1.848H143.872V5.088H146.32V6.84H143.872V14.496C143.872 15.84 143.968 16.176 145.216 16.176H146.32V18H144.736C142.264 18 141.688 17.448 141.688 14.76V6.84H139.648V5.088H141.688ZM149.103 5.088H151.287V18H149.103V5.088ZM149.103 0.599999H151.287V3.24H149.103V0.599999ZM156.239 11.592C156.239 15.048 158.111 16.392 160.103 16.392C162.095 16.392 163.967 14.904 163.967 11.592C163.967 8.136 162.095 6.792 160.103 6.792C158.111 6.792 156.239 8.064 156.239 11.592ZM160.103 4.872C163.103 4.872 166.295 6.912 166.295 11.592C166.295 16.272 163.103 18.312 160.103 18.312C157.103 18.312 153.911 16.272 153.911 11.592C153.911 6.912 157.103 4.872 160.103 4.872ZM171.092 5.088V7.032C171.836 5.808 173.084 4.872 175.268 4.872C178.388 4.872 179.516 6.888 179.516 9.84V18H177.332V10.488C177.332 8.496 176.996 6.768 174.5 6.768C172.388 6.768 171.092 8.208 171.092 10.992V18H168.908V5.088H171.092Z" fill="black"/>
</svg>
