<svg width="25" height="27" viewBox="0 0 25 27" fill="none" xmlns="http://www.w3.org/2000/svg">
<path d="M24.2259 3.77876C24.1774 3.43065 23.927 3.14429 23.5884 3.05018L12.7366 0.0322941C12.5819 -0.0107647 12.4185 -0.0107647 12.2637 0.0322941L1.4119 3.05018C1.07331 3.14429 0.822843 3.43053 0.774373 3.77876C0.711431 4.23135 -0.724451 14.925 2.95849 20.2448C6.63708 25.5582 12.0638 26.9198 12.293 26.9752C12.3611 26.9917 12.4305 26.9998 12.5001 26.9998C12.5698 26.9998 12.6392 26.9916 12.7073 26.9752C12.9366 26.9198 18.3633 25.5582 22.0418 20.2448C25.7247 14.9251 24.2888 4.23147 24.2259 3.77876ZM19.4981 10.0218L12.0961 17.4238C11.9239 17.5961 11.698 17.6823 11.4723 17.6823C11.2465 17.6823 11.0206 17.5962 10.8484 17.4238L6.27178 12.8472C6.10626 12.6818 6.01331 12.4574 6.01331 12.2234C6.01331 11.9894 6.10637 11.7649 6.27178 11.5995L7.18049 10.6908C7.52508 10.3463 8.08379 10.3462 8.42826 10.6908L11.4723 13.7348L17.3417 7.86523C17.5071 7.69971 17.7315 7.60676 17.9655 7.60676C18.1995 7.60676 18.424 7.69971 18.5894 7.86523L19.4981 8.77394C19.8427 9.11853 19.8427 9.67723 19.4981 10.0218Z" fill="#CA1200"/>
</svg>
