<svg width="33" height="24" viewBox="0 0 33 24" fill="none" xmlns="http://www.w3.org/2000/svg">
<path d="M4.08331 11.0625H2.375V6.75891H0.5V21.5446H2.375V17.241H4.08331V11.0625Z" fill="#CA1200"/>
<path d="M12.3346 3.91671H20.665V2.17859H23.8927V0.303589H9.10693V2.17859H12.3346V3.91671Z" fill="#CA1200"/>
<path d="M26.2591 9.98668H23.8931V5.79175H10.6237L7.50475 8.91075H5.9585V19.3929H7.50475L11.8082 23.6964H18.9596L23.8931 20.068V18.3169H26.2591V9.98668H26.2591ZM17.3466 18.6291L15.6523 17.8261L16.9495 15.0892H14.3711L13.6363 13.9278L15.6524 9.67575L17.3466 10.4791L16.0497 13.2142H18.6279L19.3626 14.3756L17.3466 18.6291Z" fill="#CA1200"/>
<path d="M29.4106 6.75891H28.1338V21.5446H29.4106C31.114 21.5446 32.4999 20.1588 32.4999 18.4553V9.84816C32.4999 8.14472 31.114 6.75891 29.4106 6.75891Z" fill="#CA1200"/>
</svg>
