<svg width="23" height="27" viewBox="0 0 23 27" fill="none" xmlns="http://www.w3.org/2000/svg">
<path fill-rule="evenodd" clip-rule="evenodd" d="M7.47501 2.68506H19.5542C21.0292 2.68506 22.2393 3.89512 22.2393 5.37012V22.0691C19.6154 22.0889 17.4944 24.222 17.4944 26.8506H0.758789V2.68506H3.44385V0H7.47501V2.68506ZM8.81396 20.1415C8.81396 21.6165 10.0097 22.8266 11.499 22.8266C12.974 22.8266 14.1841 21.6165 14.1841 20.1415C14.1841 18.6665 11.499 14.7714 11.499 14.7714C11.499 14.7714 8.81396 18.6665 8.81396 20.1415ZM11.499 8.05517L19.5542 10.0672V6.04317C19.5542 5.66368 19.2463 5.37012 18.8811 5.37012H11.499V8.05517Z" fill="#CA1200"/>
</svg>
