<svg width="29" height="32" viewBox="0 0 29 32" fill="none" xmlns="http://www.w3.org/2000/svg">
<path d="M18.1533 25.95C18.1533 28.925 20.5737 31.3453 23.5486 31.3453C26.5236 31.3453 28.944 28.9249 28.944 25.95C28.944 22.975 26.5236 20.5547 23.5486 20.5547C20.5736 20.5547 18.1533 22.975 18.1533 25.95ZM20.4201 24.1473L21.7459 22.8214L23.5486 24.6241L25.3513 22.8214L26.6772 24.1473L24.8745 25.95L26.6772 27.7527L25.3513 29.0785L23.5486 27.2758L21.7459 29.0785L20.4201 27.7527L22.2228 25.95L20.4201 24.1473Z" fill="#CA1200"/>
<path d="M16.8321 26.6047C16.8259 22.5522 20.2075 19.2266 24.2823 19.3366C24.3962 18.7331 24.457 18.1108 24.457 17.4741C24.457 11.9496 14.454 0 14.454 0C14.454 0 10.8091 4.35446 7.91968 9.02137C9.71259 11.5658 10.8794 14.0362 10.8255 15.3634C10.8255 18.5439 8.37831 21.1632 5.26807 21.4383C6.8031 24.9908 10.338 27.4771 14.4541 27.4771C15.282 27.4771 16.0861 27.3757 16.8554 27.1858C16.8401 26.9941 16.8321 26.8003 16.8321 26.6047Z" fill="#CA1200"/>
<path d="M8.95049 15.3634C8.95049 13.7531 6.59376 10.2167 4.72622 7.83667C2.85869 10.2167 0.501953 13.7531 0.501953 15.3634C0.501953 17.6927 2.39699 19.5876 4.72622 19.5876C7.05546 19.5876 8.95049 17.6926 8.95049 15.3634Z" fill="#CA1200"/>
</svg>
