<svg width="29" height="27" viewBox="0 0 29 27" fill="none" xmlns="http://www.w3.org/2000/svg">
<path fill-rule="evenodd" clip-rule="evenodd" d="M16.2174 0.650658L17.9442 1.9432C18.4164 2.29669 18.9135 2.4776 19.5025 2.5104L21.6561 2.63019C22.9456 2.7019 23.9929 3.58068 24.2875 4.83821L24.7794 6.93828C24.914 7.51261 25.1785 7.97072 25.6086 8.3744L27.1813 9.85051C28.1231 10.7343 28.3604 12.0807 27.7778 13.2334L26.8048 15.1583C26.5387 15.6848 26.4468 16.2057 26.5168 16.7914L26.7729 18.9331C26.9261 20.2155 26.2425 21.3995 25.0553 21.9079L23.0726 22.7571C22.5303 22.9893 22.1251 23.3293 21.8022 23.823L20.6217 25.6282C19.9148 26.709 18.6301 27.1766 17.3938 26.803L15.3292 26.179C14.7645 26.0084 14.2356 26.0084 13.6709 26.179L11.6062 26.803C10.37 27.1766 9.08523 26.709 8.37836 25.6282L7.1978 23.823C6.87489 23.3293 6.46968 22.9893 5.92746 22.7571L3.94459 21.9078C2.7574 21.3994 2.0738 20.2154 2.22707 18.933L2.48309 16.7913C2.5531 16.2056 2.46123 15.6847 2.19513 15.1582L1.2221 13.2333C0.639494 12.0807 0.876875 10.7343 1.81858 9.8504L3.39132 8.37429C3.82145 7.97061 4.08591 7.5125 4.22043 6.93816L4.71241 4.8381C5.00694 3.58062 6.05428 2.70184 7.34382 2.63008L9.49735 2.51028C10.0864 2.47754 10.5834 2.29658 11.0557 1.94308L12.7825 0.650544C13.8163 -0.12328 15.1835 -0.12328 16.2174 0.650658ZM13.3984 14.2398L11.5245 12.3659C11.0388 11.8802 10.251 11.8802 9.76537 12.3659C9.27968 12.8516 9.27968 13.6394 9.76537 14.1251L12.5216 16.8812C13.0073 17.3668 13.7951 17.3669 14.2807 16.8812C15.942 15.2199 17.5844 13.5399 19.2381 11.871C19.7202 11.3843 19.7187 10.5991 19.2327 10.1158C18.7466 9.63233 17.9591 9.63369 17.4764 10.1212L13.3984 14.2398ZM14.4999 4.23675C11.942 4.23675 9.62609 5.27361 7.94976 6.94994C6.27342 8.62634 5.23656 10.9421 5.23656 13.5001C5.23656 16.058 6.27342 18.3739 7.94976 20.0502C9.62609 21.7266 11.942 22.7634 14.4999 22.7634C17.0579 22.7634 19.3737 21.7266 21.0501 20.0502C22.7264 18.3739 23.7633 16.058 23.7633 13.5001C23.7633 10.9421 22.7264 8.62628 21.0501 6.94994C19.3737 5.27361 17.0579 4.23675 14.4999 4.23675ZM20.4093 7.59072C18.897 6.07842 16.8077 5.143 14.4999 5.143C12.1921 5.143 10.1028 6.07842 8.59054 7.59072C7.07823 9.10303 6.14281 11.1923 6.14281 13.5001C6.14281 15.8079 7.07823 17.8972 8.59054 19.4095C10.1028 20.9218 12.1921 21.8572 14.4999 21.8572C16.8077 21.8572 18.897 20.9218 20.4093 19.4095C21.9216 17.8972 22.8569 15.8079 22.8569 13.5002C22.857 11.1923 21.9216 9.10303 20.4093 7.59072Z" fill="#CA1200"/>
</svg>
