<svg width="193" height="71" viewBox="0 0 193 71" fill="none" xmlns="http://www.w3.org/2000/svg">
<mask id="mask0_77_373" style="mask-type:luminance" maskUnits="userSpaceOnUse" x="0" y="0" width="193" height="71">
<path d="M193 0H0V70.7591H193V0Z" fill="white"/>
</mask>
<g mask="url(#mask0_77_373)">
<path d="M120.411 0C105.314 0 94.8926 9.95651 94.8926 24.0671C94.8926 38.1779 105.312 48.1343 120.411 48.1343C135.577 48.1343 145.994 38.1789 145.994 24.0671C145.994 9.95555 135.577 0 120.411 0ZM120.411 33.6284C114.872 33.6284 110.981 29.7388 110.981 24.0671C110.981 18.3956 114.872 14.5059 120.411 14.5059C121.678 14.4526 122.941 14.6641 124.122 15.1266C125.302 15.5891 126.374 16.2927 127.267 17.1923C128.16 18.092 128.856 19.168 129.311 20.3517C129.765 21.5354 129.968 22.8008 129.906 24.0671C129.968 25.3336 129.766 26.5991 129.311 27.7828C128.857 28.9666 128.16 30.0427 127.267 30.9424C126.374 31.842 125.302 32.5455 124.122 33.0081C122.941 33.4706 121.678 33.6818 120.411 33.6284Z" fill="white"/>
<path d="M30.5195 34.2977C29.699 34.4835 28.8608 34.5802 28.0194 34.5863C21.3342 34.7026 17.3234 30.0522 17.3234 24.8201C17.3234 18.6572 21.9161 14.2982 31.2167 14.2982C34.6948 14.2733 38.1463 14.9042 41.3906 16.1579L41.4454 2.09342C36.906 0.705266 32.1854 -0.000256732 27.4385 7.00794e-08C10.6383 7.00794e-08 0 9.53436 0 23.8931C0 38.3096 10.6383 48.1344 27.2068 48.1344C33.2972 48.068 39.332 46.9669 45.0533 44.8783V23.5441H30.5195V34.2977Z" fill="white"/>
<path d="M174.015 18.5947C167.61 17.5369 165.426 16.3521 165.426 14.2424C165.426 12.4615 167.157 11.3412 169.946 11.3412C173.185 11.3412 174.993 12.924 174.993 15.8252H192.021C191.793 6.06584 183.284 0 169.643 0C156.384 0 148.323 5.53887 148.323 14.5713C148.323 22.6161 154.123 27.2991 166.555 29.1444C172.582 30.0012 175.219 31.4523 175.219 33.6949C175.219 35.5401 173.488 36.595 170.622 36.595C167.859 36.595 166.097 35.4988 165.54 33.4861H148.015C148.814 42.7234 157.037 48.1343 170.699 48.1343C184.788 48.1343 192.999 42.5954 192.999 33.1659C192.996 25.2548 187.199 20.7708 174.015 18.5947Z" fill="white"/>
<path d="M66.4929 1.30966V1.28369H49.5117V36.4517V46.8063L90.435 46.8515V34.4438H66.8226V13.6903H90.435V1.28369L66.4929 1.30966Z" fill="white"/>
<path d="M90.4352 19.3188H72.4512V28.8157H90.4352V19.3188Z" fill="white"/>
<path d="M0.114258 58.1054H6.08561V60.0731H4.11791V66.0673H2.08196V60.0731H0.114258V58.1054ZM8.85996 62.9849V64.1564H11.9424V66.0673H6.82402V58.1054H11.8855V60.0049H8.85996V61.1082H11.6011V62.9849H8.85996ZM17.0169 62.0181L19.4054 66.0673H17.1306L15.8795 63.9516L14.6283 66.0673H12.3422L14.7421 62.0067L12.4331 58.1054H14.7193L15.8795 60.0731L17.0397 58.1054H19.3258L17.0169 62.0181ZM24.374 61.0513V58.1054H26.3985V66.0673H24.374V63.0076H22.1333V66.0673H20.0974V58.1054H22.1333V61.0513H24.374ZM34.0764 66.0673H32.0518V62.0636L29.2425 66.0673H27.6615V58.1054H29.6975V62.1091L32.5069 58.1054H34.0764V66.0673ZM39.2948 61.9725L41.9337 66.0673H39.6588L37.3726 62.5072V66.0673H35.3368V58.1054H37.3726V61.4494L39.5451 58.1054H41.8199L39.2948 61.9725ZM49.8527 66.0673H47.6576L47.3164 64.9185H44.6662L44.325 66.0673H42.1184L44.7459 58.1054H47.2254L49.8527 66.0673ZM45.9856 60.4599L45.1894 63.1668H46.7931L45.9856 60.4599ZM59.4235 58.1054V64.0995H60.2766V67.5913H58.252V66.0673H54.5328V67.5913H52.4968V64.0995H53.3385C53.7025 63.5157 53.8844 62.674 53.8844 61.5745V58.1054H59.4235ZM55.454 64.0995H57.3989V59.9936H55.909V61.5973C55.909 62.6664 55.7573 63.5005 55.454 64.0995ZM60.6927 66.0673V64.1678C61.1325 64.2208 61.4434 64.1564 61.6253 63.9744C61.815 63.7849 61.9097 63.4171 61.9097 62.8711V58.1054H67.574V66.0673H65.538V60.0731H63.9457V62.9621C63.9457 64.2739 63.5968 65.1573 62.8993 65.6122C62.3002 66.0066 61.5648 66.1582 60.6927 66.0673ZM71.5439 58.1054H74.7286V66.0673H72.7041V63.4967H72.2718L70.6681 66.0673H68.4047L70.2246 63.2124C69.7468 62.9925 69.3715 62.674 69.0986 62.257C68.8256 61.8399 68.689 61.3736 68.689 60.858C68.689 60.0541 68.962 59.3983 69.508 58.8903C70.0539 58.3671 70.7326 58.1054 71.5439 58.1054ZM71.5667 61.7678H72.7041V59.9822H71.5667C71.3241 59.9822 71.1194 60.0693 70.9525 60.2438C70.7933 60.4106 70.7136 60.6228 70.7136 60.8806C70.7136 61.146 70.7933 61.3622 70.9525 61.529C71.1194 61.6959 71.3241 61.7754 71.5667 61.7678ZM77.9981 66.0673V64.1678C78.4378 64.2208 78.7487 64.1564 78.9307 63.9744C79.1203 63.7849 79.215 63.4171 79.215 62.8711V58.1054H84.8793V66.0673H82.8434V60.0731H81.251V62.9621C81.251 64.2739 80.9022 65.1573 80.2046 65.6122C79.6056 66.0066 78.87 66.1582 77.9981 66.0673ZM88.1668 62.9849V64.1564H91.2492V66.0673H86.1309V58.1054H91.1923V60.0049H88.1668V61.1082H90.9079V62.9849H88.1668ZM96.0066 66.2378C94.8086 66.2378 93.8152 65.8436 93.0266 65.0549C92.2456 64.2663 91.8551 63.2768 91.8551 62.0863C91.8551 60.8958 92.2456 59.9101 93.0266 59.1291C93.8076 58.333 94.801 57.9348 96.0066 57.9348C96.727 57.9348 97.3942 58.1054 98.0084 58.4466C98.6226 58.7879 99.1041 59.2466 99.4529 59.8229L97.6899 60.8352C97.5383 60.5547 97.3109 60.3347 97.0076 60.1755C96.7118 60.0087 96.3782 59.9253 96.0066 59.9253C95.3773 59.9253 94.8616 60.1262 94.4598 60.5281C94.073 60.93 93.8797 61.4494 93.8797 62.0863C93.8797 62.7385 94.073 63.2617 94.4598 63.6559C94.854 64.0502 95.3697 64.2474 96.0066 64.2474C96.3782 64.2474 96.7118 64.1678 97.0076 64.0085C97.3109 63.8417 97.5383 63.6143 97.6899 63.3261L99.4529 64.3498C99.1041 64.9336 98.6226 65.3961 98.0084 65.7374C97.4018 66.071 96.7346 66.2378 96.0066 66.2378ZM107.234 66.0673H105.038L104.697 64.9185H102.047L101.706 66.0673H99.4994L102.127 58.1054H104.606L107.234 66.0673ZM103.366 60.4599L102.57 63.1668H104.174L103.366 60.4599ZM112.289 68.3421H110.39V57.8779H112.289V68.3421ZM116.121 58.1054H122.263V66.0673H120.227V60.0731H118.156V66.0673H116.121V58.1054ZM130.57 66.0673H128.375L128.034 64.9185H125.384L125.043 66.0673H122.836L125.464 58.1054H127.943L130.57 66.0673ZM126.704 60.4599L125.907 63.1668H127.511L126.704 60.4599ZM131.149 58.1054H134.243C135.047 58.1054 135.722 58.3671 136.268 58.8903C136.814 59.4135 137.086 60.0807 137.086 60.892C137.086 61.7035 136.814 62.3707 136.268 62.8939C135.722 63.4171 135.047 63.6787 134.243 63.6787H133.185V66.0673H131.149V58.1054ZM133.185 61.7451H134.243C134.47 61.7451 134.66 61.6655 134.811 61.5062C134.971 61.347 135.05 61.1422 135.05 60.892C135.05 60.6418 134.971 60.4409 134.811 60.2893C134.66 60.13 134.47 60.0503 134.243 60.0503H133.185V61.7451ZM141.839 61.9725L144.478 66.0673H142.202L139.916 62.5072V66.0673H137.88V58.1054H139.916V61.4494L142.088 58.1054H144.364L141.839 61.9725ZM152.396 66.0673H150.201L149.859 64.9185H147.21L146.869 66.0673H144.662L147.289 58.1054H149.769L152.396 66.0673ZM148.53 60.4599L147.733 63.1668H149.336L148.53 60.4599ZM157.451 68.3421H155.552V57.8779H157.451V68.3421ZM165.128 66.2378C163.93 66.2378 162.936 65.8436 162.148 65.0549C161.367 64.2663 160.976 63.2768 160.976 62.0863C160.976 60.8958 161.367 59.9101 162.148 59.1291C162.929 58.333 163.922 57.9348 165.128 57.9348C165.848 57.9348 166.515 58.1054 167.13 58.4466C167.744 58.7879 168.225 59.2466 168.575 59.8229L166.812 60.8352C166.66 60.5547 166.432 60.3347 166.129 60.1755C165.834 60.0087 165.499 59.9253 165.128 59.9253C164.499 59.9253 163.983 60.1262 163.581 60.5281C163.195 60.93 163.001 61.4494 163.001 62.0863C163.001 62.7385 163.195 63.2617 163.581 63.6559C163.975 64.0502 164.491 64.2474 165.128 64.2474C165.499 64.2474 165.834 64.1678 166.129 64.0085C166.432 63.8417 166.66 63.6143 166.812 63.3261L168.575 64.3498C168.225 64.9336 167.744 65.3961 167.13 65.7374C166.523 66.071 165.855 66.2378 165.128 66.2378ZM176.355 66.0673H174.16L173.819 64.9185H171.169L170.827 66.0673H168.62L171.248 58.1054H173.727L176.355 66.0673ZM172.488 60.4599L171.692 63.1668H173.295L172.488 60.4599ZM183.482 58.1054V64.0995H184.335V67.5913H182.311V66.0673H178.592V67.5913H176.555V64.0995H177.398C177.761 63.5157 177.944 62.674 177.944 61.5745V58.1054H183.482ZM179.512 64.0995H181.457V59.9936H179.968V61.5973C179.968 62.6664 179.816 63.5005 179.512 64.0995ZM192.349 66.0673H190.154L189.814 64.9185H187.163L186.822 66.0673H184.615L187.243 58.1054H189.722L192.349 66.0673ZM188.483 60.4599L187.686 63.1668H189.29L188.483 60.4599Z" fill="white"/>
</g>
</svg>
