<svg width="316" height="63" viewBox="0 0 316 63" fill="none" xmlns="http://www.w3.org/2000/svg">
<path d="M111.029 0C97.1201 0 87.52 9.17227 87.52 22.1714C87.52 35.1707 97.1183 44.3429 111.029 44.3429C125 44.3429 134.597 35.1716 134.597 22.1714C134.597 9.17138 125 0 111.029 0ZM111.029 30.9796C105.926 30.9796 102.342 27.3963 102.342 22.1714C102.342 16.9466 105.926 13.3633 111.029 13.3633C112.196 13.3142 113.36 13.509 114.448 13.9351C115.535 14.3612 116.522 15.0093 117.345 15.8381C118.168 16.6669 118.809 17.6582 119.228 18.7486C119.646 19.8391 119.833 21.0048 119.776 22.1714C119.833 23.3381 119.647 24.5039 119.228 25.5944C118.81 26.685 118.168 27.6763 117.345 28.5051C116.522 29.3339 115.535 29.982 114.448 30.4081C113.36 30.8342 112.196 31.0288 111.029 30.9796Z" fill="white"/>
<path d="M28.2172 31.5962C27.4613 31.7673 26.6891 31.8564 25.914 31.862C19.7554 31.9692 16.0605 27.6851 16.0605 22.8651C16.0605 17.1876 20.2914 13.172 28.8595 13.172C32.0636 13.149 35.2432 13.7302 38.232 14.8852L38.2825 1.92853C34.1006 0.649714 29.7519 -0.00023651 25.3789 6.45595e-08C9.90191 6.45595e-08 0.101562 8.78337 0.101562 22.0111C0.101562 35.2921 9.90191 44.343 25.1654 44.343C30.7761 44.2818 36.3355 43.2675 41.6062 41.3434V21.6896H28.2172V31.5962Z" fill="white"/>
<path d="M160.41 17.13C154.51 16.1555 152.498 15.0641 152.498 13.1205C152.498 11.4799 154.093 10.4479 156.662 10.4479C159.646 10.4479 161.311 11.906 161.311 14.5787H176.998C176.788 5.58805 168.949 0 156.383 0C144.168 0 136.742 5.10259 136.742 13.4235C136.742 20.8347 142.085 25.1488 153.538 26.8488C159.09 27.6381 161.52 28.9749 161.52 31.0408C161.52 32.7407 159.925 33.7125 157.285 33.7125C154.739 33.7125 153.116 32.7026 152.603 30.8485H136.458C137.194 39.3582 144.77 44.3429 157.356 44.3429C170.335 44.3429 177.899 39.2403 177.899 30.5535C177.896 23.2655 172.556 19.1347 160.41 17.13Z" fill="white"/>
<path d="M61.3565 1.20654V1.18262H45.7129V33.5805V43.1195L83.4128 43.1612V31.7308H61.6603V12.612H83.4128V1.18262L61.3565 1.20654Z" fill="white"/>
<path d="M83.4132 17.7971H66.8457V26.5459H83.4132V17.7971Z" fill="white"/>
<path d="M0.20752 53.5289H5.70852V55.3416H3.89581V60.8636H2.02023V55.3416H0.20752V53.5289ZM8.26435 58.024V59.1032H11.104V60.8636H6.38877V53.5289H11.0516V55.2787H8.26435V56.2951H10.7896V58.024H8.26435ZM15.7788 57.1334L17.9792 60.8636H15.8836L14.731 58.9146L13.5784 60.8636H11.4723L13.6832 57.1229L11.5561 53.5289H13.6622L14.731 55.3416L15.7998 53.5289H17.9059L15.7788 57.1334ZM22.5564 56.2427V53.5289H24.4215V60.8636H22.5564V58.0449H20.4922V60.8636H18.6167V53.5289H20.4922V56.2427H22.5564ZM31.4946 60.8636H29.6295V57.1753L27.0415 60.8636H25.585V53.5289H27.4606V57.2172L30.0487 53.5289H31.4946V60.8636ZM36.302 57.0914L38.733 60.8636H36.6373L34.5312 57.5839V60.8636H32.6557V53.5289H34.5312V56.6095L36.5326 53.5289H38.6282L36.302 57.0914ZM46.0283 60.8636H44.0061L43.6917 59.8053H41.2503L40.936 60.8636H38.9032L41.3237 53.5289H43.6079L46.0283 60.8636ZM42.4658 55.6979L41.7323 58.1916H43.2097L42.4658 55.6979ZM54.8452 53.5289V59.0508H55.6311V62.2676H53.766V60.8636H50.3397V62.2676H48.4641V59.0508H49.2395C49.5748 58.513 49.7424 57.7376 49.7424 56.7247V53.5289H54.8452ZM51.1884 59.0508H52.9801V55.2683H51.6075V56.7457C51.6075 57.7306 51.4678 58.499 51.1884 59.0508ZM56.0144 60.8636V59.1137C56.4196 59.1626 56.706 59.1032 56.8736 58.9356C57.0483 58.761 57.1356 58.4222 57.1356 57.9192V53.5289H62.3537V60.8636H60.4781V55.3416H59.0112V58.003C59.0112 59.2115 58.6898 60.0253 58.0472 60.4444C57.4953 60.8077 56.8178 60.9474 56.0144 60.8636ZM66.0109 53.5289H68.9448V60.8636H67.0797V58.4955H66.6815L65.2041 60.8636H63.119L64.7955 58.2336C64.3554 58.031 64.0096 57.7376 63.7582 57.3534C63.5067 56.9692 63.3809 56.5396 63.3809 56.0646C63.3809 55.3241 63.6324 54.7199 64.1354 54.2519C64.6383 53.7699 65.2635 53.5289 66.0109 53.5289ZM66.0319 56.9028H67.0797V55.2578H66.0319C65.8084 55.2578 65.6198 55.3381 65.4661 55.4988C65.3194 55.6525 65.246 55.848 65.246 56.0855C65.246 56.33 65.3194 56.5291 65.4661 56.6828C65.6198 56.8365 65.8084 56.9098 66.0319 56.9028ZM71.9567 60.8636V59.1137C72.3618 59.1626 72.6482 59.1032 72.8159 58.9356C72.9905 58.761 73.0778 58.4222 73.0778 57.9192V53.5289H78.2959V60.8636H76.4204V55.3416H74.9534V58.003C74.9534 59.2115 74.6321 60.0253 73.9894 60.4444C73.4376 60.8077 72.76 60.9474 71.9567 60.8636ZM81.3245 58.024V59.1032H84.1641V60.8636H79.4489V53.5289H84.1117V55.2787H81.3245V56.2951H83.8497V58.024H81.3245ZM88.5468 61.0207C87.4431 61.0207 86.528 60.6575 85.8015 59.931C85.082 59.2045 84.7223 58.2929 84.7223 57.1962C84.7223 56.0995 85.082 55.1914 85.8015 54.4719C86.521 53.7385 87.4361 53.3717 88.5468 53.3717C89.2104 53.3717 89.8251 53.5289 90.3909 53.8432C90.9567 54.1576 91.4003 54.5802 91.7216 55.1111L90.0975 56.0436C89.9578 55.7852 89.7483 55.5826 89.4689 55.4359C89.1964 55.2822 88.8891 55.2054 88.5468 55.2054C87.967 55.2054 87.492 55.3905 87.1218 55.7607C86.7655 56.131 86.5874 56.6095 86.5874 57.1962C86.5874 57.797 86.7655 58.279 87.1218 58.6422C87.485 59.0054 87.96 59.1871 88.5468 59.1871C88.8891 59.1871 89.1964 59.1137 89.4689 58.967C89.7483 58.8133 89.9578 58.6038 90.0975 58.3383L91.7216 59.2814C91.4003 59.8192 90.9567 60.2453 90.3909 60.5597C89.8321 60.867 89.2174 61.0207 88.5468 61.0207ZM98.8895 60.8636H96.8672L96.5529 59.8053H94.1115L93.7971 60.8636H91.7644L94.1848 53.5289H96.469L98.8895 60.8636ZM95.3269 55.6979L94.5935 58.1916H96.0709L95.3269 55.6979ZM103.547 62.9592H101.797V53.3193H103.547V62.9592ZM107.077 53.5289H112.735V60.8636H110.86V55.3416H108.952V60.8636H107.077V53.5289ZM120.388 60.8636H118.366L118.052 59.8053H115.61L115.296 60.8636H113.263L115.684 53.5289H117.968L120.388 60.8636ZM116.826 55.6979L116.092 58.1916H117.57L116.826 55.6979ZM120.921 53.5289H123.772C124.512 53.5289 125.134 53.7699 125.637 54.2519C126.14 54.7339 126.391 55.3486 126.391 56.096C126.391 56.8435 126.14 57.4582 125.637 57.9402C125.134 58.4222 124.512 58.6632 123.772 58.6632H122.797V60.8636H120.921V53.5289ZM122.797 56.8819H123.772C123.981 56.8819 124.156 56.8085 124.295 56.6618C124.442 56.5151 124.515 56.3265 124.515 56.096C124.515 55.8655 124.442 55.6804 124.295 55.5407C124.156 55.394 123.981 55.3206 123.772 55.3206H122.797V56.8819ZM130.769 57.0914L133.2 60.8636H131.104L128.998 57.5839V60.8636H127.122V53.5289H128.998V56.6095L130.999 53.5289H133.095L130.769 57.0914ZM140.495 60.8636H138.473L138.158 59.8053H135.717L135.403 60.8636H133.37L135.79 53.5289H138.075L140.495 60.8636ZM136.933 55.6979L136.199 58.1916H137.676L136.933 55.6979ZM145.152 62.9592H143.402V53.3193H145.152V62.9592ZM152.224 61.0207C151.12 61.0207 150.205 60.6575 149.479 59.931C148.759 59.2045 148.399 58.2929 148.399 57.1962C148.399 56.0995 148.759 55.1914 149.479 54.4719C150.198 53.7385 151.113 53.3717 152.224 53.3717C152.887 53.3717 153.502 53.5289 154.068 53.8432C154.634 54.1576 155.077 54.5802 155.399 55.1111L153.775 56.0436C153.635 55.7852 153.425 55.5826 153.146 55.4359C152.874 55.2822 152.566 55.2054 152.224 55.2054C151.644 55.2054 151.169 55.3905 150.799 55.7607C150.443 56.131 150.264 56.6095 150.264 57.1962C150.264 57.797 150.443 58.279 150.799 58.6422C151.162 59.0054 151.637 59.1871 152.224 59.1871C152.566 59.1871 152.874 59.1137 153.146 58.967C153.425 58.8133 153.635 58.6038 153.775 58.3383L155.399 59.2814C155.077 59.8192 154.634 60.2453 154.068 60.5597C153.509 60.867 152.894 61.0207 152.224 61.0207ZM162.567 60.8636H160.544L160.23 59.8053H157.789L157.474 60.8636H155.441L157.862 53.5289H160.146L162.567 60.8636ZM159.004 55.6979L158.271 58.1916H159.748L159.004 55.6979ZM169.132 53.5289V59.0508H169.918V62.2676H168.053V60.8636H164.627V62.2676H162.751V59.0508H163.527C163.862 58.513 164.03 57.7376 164.03 56.7247V53.5289H169.132ZM165.475 59.0508H167.267V55.2683H165.895V56.7457C165.895 57.7306 165.755 58.499 165.475 59.0508ZM177.301 60.8636H175.279L174.965 59.8053H172.523L172.209 60.8636H170.176L172.597 53.5289H174.881L177.301 60.8636ZM173.739 55.6979L173.005 58.1916H174.483L173.739 55.6979Z" fill="white"/>
<path d="M205.946 16.4797V12.3837H202.442V16.4797H199.146V5.27974H202.442V9.24774H205.946V5.27974H209.242V16.4797H205.946ZM217.356 16.6877C213.788 16.6877 211.276 14.2877 211.276 10.8797C211.276 7.47174 213.788 5.07174 217.356 5.07174C220.924 5.07174 223.436 7.47174 223.436 10.8797C223.436 14.2877 220.924 16.6877 217.356 16.6877ZM214.652 10.8797C214.652 12.5277 215.756 13.6957 217.356 13.6957C218.94 13.6957 220.044 12.5277 220.044 10.8797C220.044 9.23174 218.94 8.06374 217.356 8.06374C215.756 8.06374 214.652 9.23174 214.652 10.8797ZM225.475 16.4797V5.27974H231.443C233.379 5.27974 234.691 6.46374 234.691 8.20774C234.691 9.32774 234.147 10.1757 233.139 10.6397C234.339 11.1037 235.043 12.0957 235.043 13.3917C235.043 15.2157 233.651 16.4797 231.619 16.4797H225.475ZM228.707 14.3037H230.371C231.283 14.3037 231.811 13.8557 231.811 13.1037C231.811 12.3677 231.283 11.9037 230.371 11.9037H228.707V14.3037ZM228.707 9.74374H230.275C231.123 9.74374 231.619 9.29574 231.619 8.60774C231.619 7.90374 231.123 7.45574 230.275 7.45574H228.707V9.74374ZM242.731 16.6877C239.163 16.6877 236.651 14.2877 236.651 10.8797C236.651 7.47174 239.163 5.07174 242.731 5.07174C246.299 5.07174 248.811 7.47174 248.811 10.8797C248.811 14.2877 246.299 16.6877 242.731 16.6877ZM240.027 10.8797C240.027 12.5277 241.131 13.6957 242.731 13.6957C244.315 13.6957 245.419 12.5277 245.419 10.8797C245.419 9.23174 244.315 8.06374 242.731 8.06374C241.131 8.06374 240.027 9.23174 240.027 10.8797ZM250.85 16.4797V5.27974H258.802V7.66374H254.066V9.66374H258.338V11.9837H254.066V14.0637H258.914V16.4797H250.85ZM264.506 16.4797V5.27974H267.77V10.8477L272.394 5.27974H274.506V16.4797H271.242V10.8957L266.602 16.4797H264.506ZM276.414 16.4797L278.078 5.27974H280.334L283.758 10.7837L287.182 5.27974H289.438L291.102 16.4797H287.838L287.022 10.6077L284.686 14.3997H282.83L280.494 10.6077L279.678 16.4797H276.414ZM299.325 16.4797V13.2637H297.901L296.269 16.4797H292.621L294.701 12.7357C293.501 12.0957 292.797 10.8637 292.797 9.26374C292.797 6.83174 294.413 5.27974 296.957 5.27974H302.557V16.4797H299.325ZM296.109 9.35974C296.109 10.2557 296.685 10.7677 297.725 10.7677H299.389V7.93574H297.725C296.685 7.93574 296.109 8.46374 296.109 9.35974ZM199.146 36.4797V25.2797H202.41V30.8477L207.034 25.2797H209.146V36.4797H205.882V30.8957L201.242 36.4797H199.146ZM215.407 36.6877C214.079 36.6877 212.703 36.4317 211.295 35.9037V33.3597C212.367 33.8077 213.727 34.0957 214.751 34.0957C215.903 34.0957 216.511 33.7277 216.511 32.9917C216.511 32.3197 216.015 31.9677 215.071 31.9677H212.751V29.6317H214.975C215.807 29.6317 216.255 29.2957 216.255 28.6397C216.255 27.9517 215.711 27.6157 214.591 27.6157C213.503 27.6157 212.367 27.8557 211.375 28.3037V25.7917C212.751 25.3277 214.095 25.0717 215.295 25.0717C217.919 25.0717 219.535 26.2397 219.535 28.1597C219.535 29.3117 218.959 30.1917 217.967 30.6557C219.151 31.1197 219.855 32.1277 219.855 33.4557C219.855 35.4877 218.223 36.6877 215.407 36.6877ZM221.943 36.4797V25.2797H227.911C229.847 25.2797 231.159 26.4637 231.159 28.2077C231.159 29.3277 230.615 30.1757 229.607 30.6397C230.807 31.1037 231.511 32.0957 231.511 33.3917C231.511 35.2157 230.119 36.4797 228.087 36.4797H221.943ZM225.175 34.3037H226.839C227.751 34.3037 228.279 33.8557 228.279 33.1037C228.279 32.3677 227.751 31.9037 226.839 31.9037H225.175V34.3037ZM225.175 29.7437H226.743C227.591 29.7437 228.087 29.2957 228.087 28.6077C228.087 27.9037 227.591 27.4557 226.743 27.4557H225.175V29.7437ZM233.584 36.4797V25.2797H241.536V27.6637H236.8V29.6637H241.072V31.9837H236.8V34.0637H241.648V36.4797H233.584ZM248.976 36.6717C245.472 36.6717 243.136 34.3517 243.136 30.8797C243.136 27.3917 245.456 25.0877 248.976 25.0877C250.176 25.0877 251.408 25.3757 252.624 25.9037V28.9597C251.616 28.4157 250.512 28.0957 249.52 28.0957C247.664 28.0957 246.512 29.1837 246.512 30.8797C246.512 32.5757 247.664 33.6637 249.52 33.6637C250.544 33.6637 251.68 33.3277 252.704 32.7677V35.8237C251.456 36.3837 250.208 36.6717 248.976 36.6717ZM257.378 36.4797V28.3357H254.146V25.2797H263.906V28.3357H260.674V36.4797H257.378ZM272.493 36.4797V32.3837H268.989V36.4797H265.693V25.2797H268.989V29.2477H272.493V25.2797H275.789V36.4797H272.493ZM283.903 36.6877C280.335 36.6877 277.823 34.2877 277.823 30.8797C277.823 27.4717 280.335 25.0717 283.903 25.0717C287.471 25.0717 289.983 27.4717 289.983 30.8797C289.983 34.2877 287.471 36.6877 283.903 36.6877ZM281.199 30.8797C281.199 32.5277 282.303 33.6957 283.903 33.6957C285.487 33.6957 286.591 32.5277 286.591 30.8797C286.591 29.2317 285.487 28.0637 283.903 28.0637C282.303 28.0637 281.199 29.2317 281.199 30.8797ZM292.021 36.4797V25.2797H299.461V28.3357H295.317V36.4797H292.021ZM306.419 36.6877C302.851 36.6877 300.339 34.2877 300.339 30.8797C300.339 27.4717 302.851 25.0717 306.419 25.0717C309.987 25.0717 312.499 27.4717 312.499 30.8797C312.499 34.2877 309.987 36.6877 306.419 36.6877ZM303.715 30.8797C303.715 32.5277 304.819 33.6957 306.419 33.6957C308.003 33.6957 309.107 32.5277 309.107 30.8797C309.107 29.2317 308.003 28.0637 306.419 28.0637C304.819 28.0637 303.715 29.2317 303.715 30.8797ZM199.146 56.4797V45.2797H207.802V47.7917H202.394V49.3917H204.586C207.162 49.3917 208.682 50.6877 208.682 52.9277C208.682 55.1837 207.162 56.4797 204.586 56.4797H199.146ZM202.378 54.1597H203.85C204.874 54.1597 205.386 53.7277 205.386 52.8957C205.386 52.0637 204.874 51.6317 203.85 51.6317H202.378V54.1597ZM210.646 56.4797V45.2797H215.478C218.342 45.2797 220.054 46.8317 220.054 49.4237C220.054 52.0157 218.342 53.5677 215.478 53.5677H213.926V56.4797H210.646ZM213.798 50.9437H215.254C216.294 50.9437 216.902 50.3997 216.902 49.4717C216.902 48.5597 216.294 47.9997 215.254 47.9997H213.798V50.9437ZM221.912 56.4797V45.2797H229.864V47.6637H225.128V49.6637H229.4V51.9837H225.128V54.0637H229.976V56.4797H221.912ZM238.931 56.4797V52.3837H235.427V56.4797H232.131V45.2797H235.427V49.2477H238.931V45.2797H242.227V56.4797H238.931ZM244.101 58.7837V53.5037H244.677C245.701 53.5037 246.101 52.8957 246.197 51.1997L246.597 45.2797H255.365V53.5037H257.093V58.7837H254.021V56.4797H247.189V58.7837H244.101ZM248.949 53.7117H252.181V48.1117H249.685L249.493 51.3917C249.429 52.5277 249.285 53.2157 248.949 53.7117ZM258.19 56.4797L262.766 45.2797H265.502L270.062 56.4797H266.654L266.142 54.9757H262.11L261.598 56.4797H258.19ZM262.814 52.5757H265.454L264.126 49.0717L262.814 52.5757Z" fill="white"/>
</svg>
