<svg width="836" height="266" viewBox="0 0 836 266" fill="none" xmlns="http://www.w3.org/2000/svg">
<path d="M501.574 40.5901V0.715088H508.339V30.3601L527.809 0.715088H534.574V40.5901H527.809V10.9451L508.339 40.5901H501.574Z" fill="white"/>
<path d="M485.015 40.5901L471.925 22.8801H466.975V40.5901H460.045V0.715088H466.975V17.0501H472.035L484.52 0.715088H492.715L477.7 19.6901L493.32 40.5901H485.015Z" fill="white"/>
<path d="M447.923 40.5901H440.938V6.54509H428.508L428.178 15.1251C427.573 30.9101 423.943 40.5901 415.418 40.5901H413.768V34.7601H414.538C419.543 34.7601 421.138 24.5851 421.413 11.6601L421.688 0.715088H447.923V40.5901Z" fill="white"/>
<path d="M371.884 40.5901V0.715088H378.649V30.3601L398.119 0.715088H404.884V40.5901H398.119V10.9451L378.649 40.5901H371.884Z" fill="white"/>
<path d="M356.01 27.335H362.72C361.015 36.3 354.745 41.305 345.505 41.305C333.845 41.305 327.08 33.055 327.08 20.515C327.08 7.975 334.23 0 345.835 0C354.69 0 361.015 5.005 362.61 13.97H355.9C354.635 8.525 350.84 5.72 345.615 5.72C339.29 5.72 334.285 10.89 334.285 20.515C334.285 30.195 339.18 35.585 345.56 35.585C351.005 35.585 354.745 32.835 356.01 27.335Z" fill="white"/>
<path d="M288.029 20.625C288.029 30.36 293.254 35.585 299.854 35.585C306.454 35.585 311.679 30.36 311.679 20.625C311.679 10.945 306.454 5.72 299.854 5.72C293.254 5.72 288.029 10.945 288.029 20.625ZM318.884 20.625C318.884 32.89 311.569 41.305 299.854 41.305C288.139 41.305 280.824 32.89 280.824 20.625C280.824 8.305 288.139 0 299.854 0C311.569 0 318.884 8.305 318.884 20.625Z" fill="white"/>
<path d="M269.741 40.5901L256.651 22.8801H251.701V40.5901H244.771V0.715088H251.701V17.0501H256.761L269.246 0.715088H277.441L262.426 19.6901L278.046 40.5901H269.741Z" fill="white"/>
<path d="M204.004 20.625C204.004 30.36 209.229 35.585 215.829 35.585C222.429 35.585 227.654 30.36 227.654 20.625C227.654 10.945 222.429 5.72 215.829 5.72C209.229 5.72 204.004 10.945 204.004 20.625ZM234.859 20.625C234.859 32.89 227.544 41.305 215.829 41.305C204.114 41.305 196.799 32.89 196.799 20.625C196.799 8.305 204.114 0 215.829 0C227.544 0 234.859 8.305 234.859 20.625Z" fill="white"/>
<path d="M179.94 0.715088H186.925V40.5901H179.94V22.9901H160.91V40.5901H153.925V0.715088H160.91V17.2151H179.94V0.715088Z" fill="white"/>
<path d="M113.157 20.625C113.157 30.36 118.382 35.585 124.982 35.585C131.582 35.585 136.807 30.36 136.807 20.625C136.807 10.945 131.582 5.72 124.982 5.72C118.382 5.72 113.157 10.945 113.157 20.625ZM144.012 20.625C144.012 32.89 136.697 41.305 124.982 41.305C113.267 41.305 105.952 32.89 105.952 20.625C105.952 8.305 113.267 0 124.982 0C136.697 0 144.012 8.305 144.012 20.625Z" fill="white"/>
<path d="M91.3559 19.4699C95.4259 20.7899 98.3409 23.5949 98.3409 29.0949C98.3409 37.6199 91.0809 41.3049 83.0509 41.3049C73.4259 41.3049 68.2559 36.1899 67.2109 28.3799H73.7559C74.5809 33.1649 77.9909 35.6399 83.0509 35.6399C88.3859 35.6399 91.1909 33.1099 91.1909 28.9299C91.1909 25.1349 89.0459 22.9349 83.6009 22.9349H78.4309V17.1599H83.2159C87.3409 17.1599 90.3659 15.1799 90.3659 11.6049C90.3659 7.64493 87.8359 5.77493 83.4359 5.77493C78.5959 5.77493 74.5259 8.35993 74.2509 13.1999H67.7059C68.5859 5.44493 74.5259 0.0549316 83.6559 0.0549316C91.6309 0.0549316 97.2409 4.17993 97.2409 10.8349C97.2409 14.7949 95.3159 17.4899 91.3559 19.4699Z" fill="white"/>
<path d="M24.8818 40.5901L39.7318 0.715088H47.1018L62.0618 40.5901H54.4168L51.2818 31.7351H35.1118L32.0318 40.5901H24.8818ZM43.1418 8.80009L37.1468 25.9051H49.1918L43.1418 8.80009Z" fill="white"/>
<path d="M26.84 0.715088V6.54509H6.985V40.5901H0V0.715088H26.84Z" fill="white"/>
<path d="M521.578 57.3049C456.181 57.3049 411.041 100.433 411.041 161.555C411.041 222.677 456.172 265.805 521.578 265.805C587.269 265.805 632.394 222.682 632.394 161.555C632.394 100.429 587.269 57.3049 521.578 57.3049ZM521.578 202.971C497.584 202.971 480.732 186.122 480.732 161.555C480.732 136.988 497.584 120.139 521.578 120.139C527.065 119.908 532.538 120.824 537.654 122.828C542.765 124.831 547.406 127.879 551.276 131.776C555.145 135.673 558.159 140.334 560.13 145.461C562.095 150.588 562.974 156.07 562.706 161.555C562.974 167.041 562.1 172.522 560.13 177.65C558.164 182.778 555.145 187.439 551.276 191.336C547.406 195.233 542.765 198.28 537.654 200.284C532.538 202.287 527.065 203.202 521.578 202.971Z" fill="white"/>
<path d="M132.199 205.87C128.645 206.675 125.014 207.094 121.37 207.12C92.4121 207.624 75.0387 187.48 75.0387 164.816C75.0387 138.121 94.9323 119.24 135.219 119.24C150.285 119.131 165.236 121.864 179.289 127.295L179.526 66.3729C159.863 60.3599 139.416 57.3038 118.854 57.3049C46.0812 57.3049 0 98.6043 0 160.801C0 223.248 46.0812 265.805 117.85 265.805C144.231 265.518 170.372 260.748 195.154 251.701V159.289H132.199V205.87Z" fill="white"/>
<path d="M753.767 137.85C726.025 133.268 716.564 128.136 716.564 118.998C716.564 111.283 724.064 106.431 736.144 106.431C750.174 106.431 758.003 113.287 758.003 125.854H831.763C830.776 83.5799 793.917 57.3049 734.832 57.3049C677.397 57.3049 642.48 81.2973 642.48 120.422C642.48 155.27 667.603 175.555 721.455 183.548C747.56 187.259 758.986 193.545 758.986 203.259C758.986 211.252 751.486 215.821 739.073 215.821C727.102 215.821 719.47 211.072 717.058 202.355H641.145C644.605 242.367 680.227 265.805 739.407 265.805C800.434 265.805 836 241.813 836 200.967C835.986 166.699 810.877 147.276 753.767 137.85Z" fill="white"/>
<path d="M288.019 62.9777V62.8652H214.463V215.2V260.052L391.728 260.248V206.503H289.448V116.606H391.728V62.8652L288.019 62.9777Z" fill="white"/>
<path d="M391.73 140.986H313.83V182.122H391.73V140.986Z" fill="white"/>
</svg>
